<?xml version="1.0" encoding="utf-8"?>
<!-- Generator: Adobe Illustrator 21.0.2, SVG Export Plug-In . SVG Version: 6.00 Build 0)  -->
<svg version="1.1" xmlns="http://www.w3.org/2000/svg" xmlns:xlink="http://www.w3.org/1999/xlink" x="0px" y="0px"
	 viewBox="0 0 48 48" style="enable-background:new 0 0 48 48;" xml:space="preserve">
<style type="text/css">
	.st0{display:none;}
	.st1{display:inline;}
	.st2{fill:#FFFFFF;}
	.st3{display:inline;opacity:7.843138e-03;fill:none;stroke:#000000;stroke-width:3.200000e-11;}
	.st4{fill:#FFFFFF;}
	.st5{fill:#FFFFFF;}
	.st6{fill:#FFFFFF;}
	.st7{fill:#FFFFFF;}
	.st8{fill:#FFFFFF;}
	.st9{fill:none;}
	.st10{fill:#FFFFFF;}
	.st11{fill:#FFFFFF;}
	.st12{fill:#FFFFFF;}
	.st13{fill:#FFFFFF;}
	.st14{fill:#FFFFFF;}
</style>
<g id="Margins" class="st0">
</g>
<g id="Referência" class="st0">
</g>
<g id="Artwork">
	<rect class="st9" width="48" height="48"/>
	<path class="st10" d="M35.7,24.2l-3,1.7v-3.5l-3.2-1.9l3.2-1.9v-10l-8.7-5l-8.7,5v10l3.2,1.9l-3.2,1.9V26l-3-1.7l-8.7,5v10l8.7,5
		l8.7-5v-3.5l3,1.7l3-1.7v3.5l8.7,5l8.7-5v-10L35.7,24.2z M42.7,37.4l-6.2-3.6v-7.2l6.2,3.6V37.4z M31,16.8l-6.2-3.6V6.1L31,9.7
		V16.8z M23.2,6.1v7.2L17,16.8V9.7L23.2,6.1z M17.8,18.3l6.2-3.6l6.2,3.6l-2.4,1.4L24,17.4l-3.8,2.2L17.8,18.3z M26.2,20.6L24,21.8
		l-2.2-1.3l2.2-1.3L26.2,20.6z M24,23.8l3.8-2.2l2.4,1.4L24,26.5l-6.2-3.6l2.4-1.4L24,23.8z M11.5,26.6v7.2l-6.2,3.6v-7.2L11.5,26.6
		z M6.1,38.8l6.2-3.6l6.2,3.6l-6.2,3.6L6.1,38.8z M19.4,37.4l-6.2-3.6v-7.2l2.2,1.3v4.6l4,2.3V37.4z M19.4,32.9L17,31.5v-2.7
		l2.4,1.4V32.9z M17,26.9v-2.6l6.2,3.6v7.2L21,33.9v-4.6L17,26.9z M24.8,35.1v-7.2l6.2-3.6v2.6l-4,2.3v4.6L24.8,35.1z M31,28.8v2.7
		l-2.4,1.4v-2.7L31,28.8z M32.7,32.5v-4.6l2.2-1.3v7.2l-6.2,3.6v-2.6L32.7,32.5z M29.5,38.8l6.2-3.6l6.2,3.6l-6.2,3.6L29.5,38.8z"/>
</g>
</svg>
